<?xml version="1.0" encoding="UTF-8"?>
<!DOCTYPE svg PUBLIC "-//W3C//DTD SVG 1.1//EN" "http://www.w3.org/Graphics/SVG/1.1/DTD/svg11.dtd">
<svg version="1.1" xmlns="http://www.w3.org/2000/svg" xmlns:xlink="http://www.w3.org/1999/xlink" x="0" y="0" width="512" height="512" viewBox="0, 0, 512, 512">
  <g id="Blue_-_Orange">
    <g>
      <path d="M286,275.5 z" fill="#FFFFFF"/>
      <path d="M286,275.5 z" fill-opacity="0" stroke="#000000" stroke-width="1"/>
    </g>
    <path d="M256,0 C280.659,0.124 305.424,3.08 329.012,10.196 L338.335,57.853 C357.479,65.144 375.781,75.006 391.673,87.733 L438.801,71.761 C473.382,104.917 502.12,147.455 512,194.352 L474.08,226.057 C476.44,248.647 475.893,238.653 476.345,256 C475.893,273.346 476.44,263.353 474.08,285.943 L512,317.647 C501.429,364.869 473.555,406.513 438.801,440.238 L391.674,424.267 C375.894,437.336 357.291,446.369 338.335,454.147 L329.012,501.804 C305.488,509.367 280.61,511.396 256,512 C231.342,511.876 206.576,508.92 182.988,501.804 L173.665,454.147 C154.521,446.856 136.219,436.993 120.326,424.267 L73.199,440.238 C38.618,407.083 9.881,364.545 0,317.648 L37.92,285.943 C35.561,263.353 36.107,273.346 35.655,256 C36.107,238.653 35.561,248.647 37.92,226.057 L0,194.353 C10.571,147.131 38.445,105.486 73.199,71.762 L120.326,87.733 C136.107,74.664 154.709,65.631 173.664,57.854 L182.987,10.196 C206.512,2.633 231.391,0.604 256,0 z M256,107.637 C171.56,107.637 103.108,174.061 103.108,256 C103.108,337.939 171.56,404.364 256,404.363 C340.44,404.364 408.892,337.939 408.892,256 C408.892,174.061 340.44,107.637 256,107.637 z" fill="#0899CC"/>
    <path d="M256,369.5 C193.316,369.5 142.5,318.684 142.5,256 C142.5,193.316 193.316,142.5 256,142.5 C318.684,142.5 369.5,193.316 369.5,256 C369.5,318.684 318.684,369.5 256,369.5 z" fill="#F7941D"/>
  </g>
</svg>
